<svg xmlns="http://www.w3.org/2000/svg" width="31.906" height="22.12" viewBox="0 0 31.906 22.12">
  <metadata><?xpacket begin="﻿" id="W5M0MpCehiHzreSzNTczkc9d"?>
<x:xmpmeta xmlns:x="adobe:ns:meta/" x:xmptk="Adobe XMP Core 5.6-c140 79.160451, 2017/05/06-01:08:21        ">
   <rdf:RDF xmlns:rdf="http://www.w3.org/1999/02/22-rdf-syntax-ns#">
      <rdf:Description rdf:about=""/>
   </rdf:RDF>
</x:xmpmeta>
                                                                                                    
                                                                                                    
                                                                                                    
                                                                                                    
                                                                                                    
                                                                                                    
                                                                                                    
                                                                                                    
                                                                                                    
                                                                                                    
                                                                                                    
                                                                                                    
                                                                                                    
                                                                                                    
                                                                                                    
                                                                                                    
                                                                                                    
                                                                                                    
                                                                                                    
                                                                                                    
                           
<?xpacket end="w"?></metadata>
<defs>
    <style>
      .cls-1 {
        fill-rule: evenodd;
      }
    </style>
  </defs>
  <path id="_SITE_ATL_Logo" data-name="[SITE] ATL Logo" class="cls-1" d="M755,1726.95v22.1h31.9v-22.1H755Zm7.771,10.47,4.781-9.11v9.11h-4.781Zm4.781,3.7v1.29h-7.4l0.676-1.29h6.725Zm-11.587-13.21h7.4l-7.4,14.09v-14.09Zm29.965,20.18H755.967v-4.72h29.965v4.72Zm0-13.84a6.334,6.334,0,0,0-.6-1.97,4.3,4.3,0,0,0-4.506-2.33,4.352,4.352,0,0,0-3.7,4.1,4.33,4.33,0,0,1,4.53-1.05,4.814,4.814,0,0,1,2.679,6.22,5.738,5.738,0,0,1-.862,1.48,7.223,7.223,0,0,0,2.294-3.65,9.2,9.2,0,0,0,.173-0.93v6.29H779.58a6.718,6.718,0,0,0,1.964-.61,4.264,4.264,0,0,0,2.325-4.5,4.349,4.349,0,0,0-4.1-3.7,4.3,4.3,0,0,1,1.049,4.52,4.8,4.8,0,0,1-6.218,2.68,5.726,5.726,0,0,1-1.483-.86,7.227,7.227,0,0,0,3.657,2.29,7,7,0,0,0,.912.18h-6.253v-6.23a6.51,6.51,0,0,0,.582,1.84,4.276,4.276,0,0,0,4.506,2.32,4.346,4.346,0,0,0,3.706-4.1,4.311,4.311,0,0,1-4.53,1.05,4.806,4.806,0,0,1-2.68-6.21,5.9,5.9,0,0,1,.862-1.49,7.279,7.279,0,0,0-2.3,3.66c-0.061.25-.113,0.51-0.151,0.78v-6.12h6.209a6.514,6.514,0,0,0-1.838.59,4.265,4.265,0,0,0-2.327,4.5,4.351,4.351,0,0,0,4.1,3.7,4.308,4.308,0,0,1-1.049-4.53,4.808,4.808,0,0,1,6.218-2.67,5.7,5.7,0,0,1,1.484.86,7.238,7.238,0,0,0-3.658-2.29,6.746,6.746,0,0,0-.778-0.16h6.137v6.34Zm-6.3,1.86a1.357,1.357,0,1,0-1.918,0A1.358,1.358,0,0,0,779.632,1736.11Zm-18.117,11.02h0.862v-2.12h1.215v-0.7H760.3v0.7h1.214v2.12Zm5.4-.73h-1.94v-2.09h-0.863v2.82h2.8v-0.73Zm5.735-1.32h0.008l1.621,2.05h1.337v-2.82h-0.864v2.05h-0.006l-1.622-2.05h-1.338v2.82h0.864v-2.05Zm4.7,2.05h0.862v-2.12h1.213v-0.7H776.13v0.7h1.214v2.12Zm3.5-2.82h-0.865v2.82h0.865v-2.82Zm1.947,2.87a7.989,7.989,0,0,0,1.391,0,0.884,0.884,0,0,0,1.039-.85v-0.26h-0.864c0,0.35-.2.37-0.5,0.39a5.655,5.655,0,0,1-.922,0,0.457,0.457,0,0,1-.493-0.57v-0.36c0-.45.118-0.53,0.54-0.57a4.885,4.885,0,0,1,.94,0c0.209,0.03.406,0.06,0.406,0.26v0.08h0.863c0.007-.8-0.316-1.01-1.38-1.06a8.59,8.59,0,0,0-1.015,0,1.064,1.064,0,0,0-1.241,1.02c-0.016.4-.009,0.46,0,0.9A1.046,1.046,0,0,0,782.8,1747.18Zm-14.431-.55h1.772l0.25,0.5h0.96l-1.482-2.82H768.61l-1.46,2.82h0.974Zm0.794-1.64h0.153l0.52,1.03h-1.17Zm-11.52,1.64h1.771l0.249,0.5h0.961l-1.484-2.82h-1.253l-1.458,2.82H757.4Zm0.794-1.64h0.152l0.521,1.03h-1.172Z" transform="translate(-755 -1726.94)"/>
</svg>
